<svg width="300" height="300" viewBox="0 0 2500 1800" xmlns="http://www.w3.org/2000/svg">
  <!-- colors are set via classes on paths; when inlined, these can be styled from CSS -->
  
  <g id="Group 2" class="logo">
    <path id="Object 3" class="logo-primary" d="m1542.9 1648.8c62-31 82.1-69 91.8-96.6 29.1-83.3 3.9-215.7-70-375.7 43-84.5 91-166.4 142.9-245.7 110.1 195.9 171.4 373.2 177.9 515.6 3.7 179.8-260.6 245-342.6 202.4z"></path>
    <path id="Object 4" class="logo-primary" d="m595.7 1421.9c6.6-142.4 63.9-310.7 174-506.6 51.9 79.3 99.9 161.2 142.9 245.6-73.9 160.1-95.2 283.5-66 366.7 9.6 27.7 29.7 65.7 91.7 96.7-81.9 42.6-346.3-22.7-342.6-202.4z"></path>
    <path id="Object 5" class="logo-accent-1" d="m1746.5 389.7c22.7-25.9 55.6-40.8 90-40.8 34.5 0 67.4 14.9 90.1 40.8 60.4 68.8 588.3 684.3 545.8 1116.1-6.4 65.9-65 113.8-130.9 107.5-65.9-6.5-114-65.1-107.6-130.9 22.8-231.6-228.2-608.7-397-824.8-43.9 56.3-99.2 130.6-154.6 214.3q0 0.1 0.1 0.3c-51.2 77.8-99.5 157.7-141.2 241q-0.1-0.2-0.2-0.3c-91 181.8-123.4 327-91.5 418.1 9.6 27.6 29.7 65.6 91.5 96.6 81.9 42.6 346.3-22.7 342.5-202.4-5-111-41-237.7-108.7-380.9 108.9 230.2 135.9 417.8 84.1 565.7-29.6 84.6-101.8 198.3-278.2 260.3-12.9 4.5-26.3 6.8-39.7 6.8-13.5 0-27-2.3-39.9-6.8-176.1-62-248.3-175.7-277.8-260.2-63.8-182.2-4.5-430.3 176.4-738.2 45.2-77.9 89.4-144.3 141.3-217.9 107.8-152.5 200.4-258.5 205.5-264.3z"></path>
    <path id="Object 6" fill-rule="evenodd" class="logo-accent-2" d="m938.3 650.7c51.8 73.6 96.1 140.1 141.3 217.9 73.8 125.6 127.3 241.3 160.6 346.6-49.2 154.2-55 286.3-16.9 394.9 4.2 12.2 9.4 24.9 15.6 38.1-37.5 77.3-112.1 166.4-260.7 218.8-13 4.5-26.4 6.8-39.9 6.8-13.4 0-26.8-2.2-39.7-6.8-176.4-62-248.7-175.7-278.2-260.2-46.8-133.4-29.4-299.1 54.4-499.2-48.6 116.3-74.8 220.9-79.1 314.3-3.7 179.7 260.6 245 342.6 202.4 61.8-31 81.8-69 91.5-96.6 31.9-91.1-0.5-236.3-91.5-418.1q-0.1 0.2-0.2 0.3c-41.7-83.3-90-163.2-141.2-241q0-0.2 0.1-0.3c-55.4-83.7-110.7-158-154.6-214.2-168.8 216-419.8 593.1-397.1 824.7 6.5 65.8-41.6 124.5-107.5 131-65.9 6.3-124.5-41.7-131-107.5-42.5-431.9 485.5-1047.4 545.9-1116.2 22.7-25.9 55.5-40.8 90-40.8 34.5 0 67.3 14.9 90.1 40.8 5.1 5.8 97.7 111.8 205.5 264.3zm-249 423.4q7.5-16.9 15.7-34.2c-5.4 11.5-10.7 22.9-15.7 34.2z"></path>
    <path id="Object 7" class="logo-primary" d="m1504.7 632.6c-50.1 71.2-93.2 136.2-137.2 212q-2.4 4.2-4.8 8.3c-55.1-84.4-90-131.5-139-194.6-35.9 45.9-81.5 106.9-126.3 171.9-46.5-78.1-95.3-151.1-141.2-215.4 94.1-129.3 172.7-219.5 177.2-224.7 22.8-26 55.6-40.8 90.1-40.8 34.5 0 67.3 14.8 90.1 40.7 22.8 26.1 90.6 99.5 191.1 242.6z"></path>
    <path id="Object 8" class="logo-accent-3" fill="#ff6200" d="m648.3 305.6q-139.8-13.1-152.8-152.8 13-139.7 152.8-152.7 139.7 13 152.7 152.7-13 139.7-152.7 152.8z"></path>
    <path id="Object 9" class="logo-primary" d="m1242.5 314.6q-139.8-13-152.8-152.8 13-139.7 152.8-152.7 139.7 13 152.8 152.7-13.1 139.8-152.8 152.8z"></path>
    <path id="Object 10" class="logo-accent-1" d="m1811.6 313q-139.8-13-152.8-152.7 13-139.7 152.8-152.8 139.7 13.1 152.8 152.8-13.1 139.7-152.8 152.7z"></path>
  </g>
</svg>
