<svg width="20" height="20" viewBox="0 0 20 20" fill="none" xmlns="http://www.w3.org/2000/svg">
  <path fill-rule="evenodd" clip-rule="evenodd" d="M8.33333 2.5C7.8731 2.5 7.5 2.8731 7.5 3.33333V4.16667H4.16667C3.70643 4.16667 3.33333 4.53976 3.33333 5C3.33333 5.46024 3.70643 5.83333 4.16667 5.83333H4.58333V15C4.58333 16.1506 5.51606 17.0833 6.66667 17.0833H13.3333C14.4839 17.0833 15.4167 16.1506 15.4167 15V5.83333H15.8333C16.2936 5.83333 16.6667 5.46024 16.6667 5C16.6667 4.53976 16.2936 4.16667 15.8333 4.16667H12.5V3.33333C12.5 2.8731 12.1269 2.5 11.6667 2.5H8.33333ZM6.25 5.83333V15C6.25 15.3452 6.52982 15.625 6.875 15.625H13.125C13.4702 15.625 13.75 15.3452 13.75 15V5.83333H6.25Z" fill="currentColor"/>
</svg>




